<?xml version="1.0" encoding="utf-8"?>
<!-- Generator: Adobe Illustrator 23.0.2, SVG Export Plug-In . SVG Version: 6.00 Build 0)  -->
<svg version="1.1" id="图层_1" xmlns="http://www.w3.org/2000/svg" xmlns:xlink="http://www.w3.org/1999/xlink" x="0px" y="0px"
	 viewBox="0 0 32 32" style="enable-background:new 0 0 32 32;" xml:space="preserve">
<style type="text/css">
	.st0{fill:#294491;}
	.st1{fill:none;stroke:#FFFFFF;stroke-linecap:round;stroke-linejoin:round;stroke-miterlimit:10;}
	.st2{fill:#FFFFFF;}
	.st3{fill:none;stroke:#294491;stroke-width:0.5;stroke-miterlimit:10;}
</style>
<g>
	<path class="st0" d="M28.2,30.2H3.8c-1.1,0-1.9-0.9-1.9-1.9V3.8c0-1.1,0.9-1.9,1.9-1.9h24.4c1.1,0,1.9,0.9,1.9,1.9v24.4
		C30.2,29.3,29.3,30.2,28.2,30.2z"/>
	<g>
		<path class="st1" d="M18.6,10.9c-0.2-0.1-0.4-0.2-0.6-0.2c-0.1,0-0.1-0.1-0.1-0.1V8.1c0-0.5-0.4-0.9-0.9-0.9h-2.2
			c-0.5,0-0.9,0.4-0.9,0.9v2.3c0,0.1,0,0.1-0.1,0.1c-0.2,0.1-0.4,0.2-0.6,0.3c-0.1,0-0.1,0-0.2,0l-1.6-1.6c-0.3-0.3-0.9-0.3-1.2,0
			l-1.5,1.5c-0.3,0.3-0.3,0.9,0,1.2l1.6,1.6c0,0,0.1,0.1,0,0.2c-0.1,0.2-0.2,0.4-0.3,0.6c0,0.1-0.1,0.1-0.1,0.1H7.7
			c-0.5,0-0.9,0.4-0.9,0.9v2.2c0,0.5,0.4,0.9,0.9,0.9H10c0.1,0,0.1,0,0.1,0.1c0.1,0.2,0.2,0.4,0.3,0.6c0,0.1,0,0.1,0,0.2l-1.6,1.6
			c-0.3,0.3-0.3,0.9,0,1.2l1.5,1.5c0.3,0.3,0.9,0.3,1.2,0l1.6-1.6c0,0,0.1-0.1,0.2,0c0.2,0.1,0.4,0.2,0.6,0.3c0.1,0,0.1,0.1,0.1,0.1
			v2.3c0,0.5,0.4,0.9,0.9,0.9h2.2c0.5,0,0.9-0.4,0.9-0.9v-2.4c0-0.1,0-0.1,0.1-0.1c0.2-0.1,0.4-0.2,0.6-0.2c0.1,0,0.1,0,0.2,0
			l1.7,1.7c0.3,0.3,0.9,0.3,1.2,0l1.5-1.5c0.3-0.3,0.3-0.9,0-1.2l-1.7-1.7c0,0-0.1-0.1,0-0.2c0.1-0.2,0.2-0.4,0.2-0.6
			c0-0.1,0.1-0.1,0.1-0.1h2.4c0.5,0,0.9-0.4,0.9-0.9v-2.2c0-0.5-0.4-0.9-0.9-0.9h-2.4c-0.1,0-0.1,0-0.1-0.1
			c-0.1-0.2-0.1-0.4-0.2-0.6"/>
		<path class="st1" d="M18.9,15.5c0.2,0.4,0.2,0.8,0.2,1.2c0,1.7-1.4,3.1-3.1,3.1s-3.1-1.4-3.1-3.1c0-1.7,1.4-3.1,3.1-3.1
			c0.3,0,0.5,0,0.8,0.1"/>
	</g>
	<path class="st2" d="M19.7,14.6l-2-2.1l6.3-5.9c0.2-0.2,0.4-0.1,0.6,0L26,8.1c0.2,0.2,0.1,0.4,0,0.6L19.7,14.6z"/>
	<line class="st3" x1="22.7" y1="7.9" x2="24.7" y2="10"/>
	<polygon class="st2" points="17.6,12.7 18.6,13.7 19.5,14.7 18.2,15 16.8,15.3 17.2,14 	"/>
</g>
</svg>
